<?xml version="1.0" encoding="utf-8"?>
<svg viewBox="0 0 40 40" width="40px" height="40px" xmlns="http://www.w3.org/2000/svg">
  <path d="M 30.701 12.311 Q 30.701 14.94 29.881 16.966 Q 29.061 18.992 27.493 20.379 Q 25.925 21.766 23.646 22.49 Q 21.366 23.214 18.279 23.214 L 15.674 23.214 L 15.674 33.176 Q 15.674 33.417 15.517 33.61 Q 15.36 33.803 14.999 33.923 Q 14.637 34.044 14.034 34.116 Q 13.431 34.189 12.49 34.189 Q 11.573 34.189 10.958 34.116 Q 10.343 34.044 9.981 33.923 Q 9.62 33.803 9.475 33.61 Q 9.33 33.417 9.33 33.176 L 9.33 5.099 Q 9.33 3.965 9.921 3.398 Q 10.512 2.831 11.477 2.831 L 18.834 2.831 Q 19.943 2.831 20.944 2.916 Q 21.945 3 23.344 3.278 Q 24.743 3.555 26.179 4.303 Q 27.614 5.05 28.627 6.196 Q 29.64 7.342 30.171 8.874 Q 30.701 10.405 30.701 12.311 Z M 24.068 12.769 Q 24.068 11.129 23.489 10.068 Q 22.91 9.006 22.066 8.5 Q 21.222 7.993 20.293 7.861 Q 19.364 7.728 18.375 7.728 L 15.674 7.728 L 15.674 18.317 L 18.52 18.317 Q 20.04 18.317 21.065 17.907 Q 22.09 17.497 22.741 16.761 Q 23.393 16.026 23.73 15 Q 24.068 13.975 24.068 12.769 Z" style="fill: rgb(170, 207, 206); paint-order: fill; stroke: rgb(0, 0, 0); stroke-linecap: round; stroke-linejoin: round; white-space: pre; vector-effect: non-scaling-stroke;"/>
  <path style="fill: rgb(88, 203, 213); stroke: rgb(0, 0, 0); vector-effect: non-scaling-stroke; stroke-linecap: round; stroke-linejoin: round;" d="M 9.345 28.392 L 9.334 34.442 C 9.334 34.442 9.242 36.532 11.171 37.622 C 13.099 38.713 15.603 37.152 15.637 34.787 C 15.67 32.422 15.648 30.952 15.648 30.952 C 15.648 30.952 15.48 30.464 15.07 30.461 C 14.659 30.456 14.441 30.721 14.437 30.968 C 14.434 31.216 14.429 32.605 14.429 32.605 C 14.429 32.605 14.393 32.78 14.212 32.791 C 14.03 32.801 13.984 32.553 13.984 32.553 L 13.974 31.62 C 13.974 31.62 13.828 31.093 13.316 31.135 C 12.803 31.177 12.716 31.615 12.71 31.631 C 12.705 31.647 12.705 32.563 12.705 32.563 C 12.705 32.563 12.684 32.838 12.472 32.827 C 12.26 32.817 12.265 32.595 12.265 32.595 L 12.26 30.963 C 12.26 30.963 12.177 30.462 11.665 30.446 C 11.152 30.431 11.033 30.968 11.033 30.968 C 11.033 30.968 11.043 32.579 11.038 32.579 C 11.033 32.579 11.043 32.838 10.775 32.822 C 10.506 32.806 10.532 32.605 10.532 32.605 L 10.521 28.35 C 10.521 28.35 10.521 27.791 9.92 27.806 C 9.321 27.822 9.351 28.401 9.345 28.392 Z"/>
</svg>